<svg viewBox="0 0 50 50" xmlns="http://www.w3.org/2000/svg" xmlns:xlink="http://www.w3.org/1999/xlink" width="50.000000" height="50.000000" fill="none" customFrame="#000000">
	<rect id="Vector 3" width="50.000000" height="50.000000" x="0.000000" y="0.000000" fill="rgb(255,255,255)" fill-opacity="0" />
	<path id="Vector 1" d="M39.2459 29.2464C39.0514 29.7763 38.322 29.7729 37.9817 29.7049C31.5246 29.3788 28.7434 23.0133 28.1599 19.8712C27.9492 18.8862 27.6931 15.3976 28.3544 9.32419C29.181 1.73236 37.1065 0 38.8083 0C40.1697 0 40.2832 0.883165 40.1697 1.32475C36.0854 7.99944 36.9606 13.1456 38.2248 15.3365C39.2361 17.0893 39.9428 19.6674 40.1697 20.7374C40.2345 21.196 40.3545 22.5411 40.3156 24.2531C40.2669 26.3931 39.489 28.584 39.2459 29.2464ZM41.2394 27.9216C41.1746 28.3122 41.2491 29.1241 42.066 29.2464C43.0871 29.3992 48.4356 26.1383 49.4566 21.2979C50.2735 17.4255 49.9915 12.1435 49.7484 9.98656C49.3594 7.57484 47.4631 2.37436 42.9898 0.866181C42.6333 0.679358 41.8229 0.509519 41.4339 1.32475C41.2697 1.66885 41.2497 1.82123 41.2278 1.98788C41.1848 2.31475 41.1346 2.69651 39.9752 4.68757C38.5749 7.0925 39.1648 12.5851 39.6349 15.0308C40.3318 16.2027 41.7937 19.2598 42.066 22.1131C42.3383 24.9664 41.6284 27.1743 41.2394 27.9216ZM0.104626 11.668C0.00738009 11.8548 -0.109316 12.2896 0.201869 12.5342C0.590851 12.8399 3.50822 14.3684 5.45312 14.4703C7.39803 14.5722 10.3154 14.5722 11.7254 13.5532C13.1355 12.5342 19.0675 11.3623 25.0967 16.4574C25.4208 16.5933 26.108 16.6511 26.2636 15.7951C26.4581 14.7251 26.3122 10.0375 23.9784 7.33707C22.1112 5.17671 19.4727 4.1271 18.3868 3.87234C16.1177 3.63457 11.3462 3.10806 10.4126 2.90426C9.24569 2.6495 1.95228 3.15901 0.104626 11.668ZM25.2912 18.9541C25.4079 18.5465 25.2425 18.1389 25.1453 17.986C19.1161 13.6041 14.3997 13.4003 10.5099 15.3365C7.39802 16.8854 3.34614 15.6762 1.70917 14.8779C1.20674 14.4873 0.182422 14.0933 0.104626 15.6422C0.00738077 17.5784 3.45959 23.285 6.62006 23.5398C9.14844 23.7436 10.3964 24.1002 10.7044 24.2531C11.7741 24.5078 14.5067 24.9868 16.8794 24.8645C19.2522 24.7422 21.2717 23.5567 21.9848 22.9793C24.027 21.6545 25.1453 19.4636 25.2912 18.9541ZM19.7968 27.2592C25.6704 25.7103 28.6948 28.8557 29.4727 30.6221C29.6865 31.0297 29.5618 31.1656 29.4727 31.1825C28.6137 31.3863 26.5456 31.9978 25.1453 32.813C19.9913 36.3796 21.1582 36.8382 19.3106 40.8124C17.4629 44.7867 14.3024 46.519 13.7676 46.57C13.3397 46.6108 13.2327 46.8248 13.2327 46.9267C12.9216 47.3343 12.6169 47.3003 12.5034 47.2324C11.7417 46.3492 10.1501 43.8288 9.87778 40.8124C9.53742 37.042 11.0933 35.2587 12.5034 33.6792C13.6315 32.4156 14.8211 31.1146 15.2749 30.6221C15.7287 29.8068 17.2684 27.9929 19.7968 27.2592ZM30.9314 32.2016C30.8342 32.0317 30.4743 31.743 29.8131 31.9468C28.9865 32.2016 28.2571 32.4563 27.0416 32.813C25.826 33.1697 23.4435 34.902 22.1793 36.7363C21.168 38.2037 20.1696 41.0502 19.7968 42.29C19.1323 43.5299 17.1517 46.2949 14.5456 47.4362C13.4953 47.9253 13.881 48.5232 14.2052 48.7609C16.6201 50.0687 22.2863 51.4614 25.6315 46.57C27.4597 44.4096 28.5327 43.4959 28.8406 43.3091C30.3641 42.0692 32.9152 38.112 30.9314 32.2016Z" fill="rgb(94,53,28)" fill-rule="evenodd" />
	<circle id="Ellipse 10" cx="142.5" cy="124.5" r="184" opacity="0" stroke="rgb(94,53,28)" stroke-width="5" />
</svg>
