<svg width="373" height="373" viewBox="0 0 373 373" fill="none" xmlns="http://www.w3.org/2000/svg">
<path d="M156.842 207.019C190.321 198.779 207.56 215.512 211.994 224.909C213.213 227.078 212.502 227.801 211.994 227.891C207.098 228.975 195.31 232.228 187.328 236.565C157.95 255.54 164.602 257.979 154.07 279.122C143.539 300.265 125.524 309.481 122.475 309.752C120.036 309.969 119.427 311.108 119.427 311.65C117.653 313.818 115.916 313.638 115.269 313.276C110.927 308.578 101.855 295.169 100.303 279.122C98.3633 259.063 107.232 249.576 115.269 241.173C121.699 234.451 128.48 227.53 131.067 224.909C133.654 220.572 142.43 210.922 156.842 207.019Z" fill="#5E351C"/>
<path d="M213.935 231.957C217.704 230.873 219.755 232.409 220.309 233.312C231.617 264.756 217.076 285.808 208.392 292.404C206.636 293.398 200.521 298.259 190.1 309.752C171.032 335.775 138.735 328.365 124.97 321.408C123.122 320.143 120.923 316.963 126.91 314.36C141.765 308.289 153.054 293.579 156.842 286.983C158.967 280.387 164.657 265.244 170.422 257.437C177.628 247.679 191.208 238.463 198.137 236.565C205.066 234.668 209.223 233.312 213.935 231.957Z" fill="#5E351C"/>
<path d="M188.16 162.836C188.825 160.667 187.883 158.499 187.328 157.686C152.962 134.374 126.078 133.29 103.906 143.59C86.1687 151.831 63.073 145.397 53.7423 141.151C50.8784 139.073 45.0398 136.976 44.5964 145.217C44.0421 155.517 63.7197 185.876 81.7344 187.232C96.1461 188.316 103.26 190.213 105.015 191.026C111.112 192.382 126.688 194.93 140.213 194.279C153.738 193.629 165.249 187.322 169.314 184.25C180.954 177.202 187.328 165.546 188.16 162.836Z" fill="#5E351C"/>
<path d="M45.1507 128.682C43.3769 127.381 44.0421 125.068 44.5964 124.074C55.128 78.806 96.7004 76.0953 103.352 77.4506C108.673 78.5349 135.871 81.3359 148.804 82.6009C154.994 83.9562 170.034 89.5401 180.677 101.033C193.98 115.4 194.811 140.337 193.703 146.03C192.816 150.584 188.899 150.276 187.051 149.554C152.685 122.447 118.872 128.682 110.835 134.103C102.798 139.524 86.1688 139.524 75.0828 138.982C63.9968 138.44 47.3678 130.308 45.1507 128.682Z" fill="#5E351C"/>
<path d="M267.701 217.591C266.593 220.41 262.436 220.392 260.496 220.03C223.69 218.295 207.837 184.431 204.511 167.715C203.311 162.474 201.851 143.915 205.62 111.605C210.332 71.2162 255.507 62 265.207 62C272.967 62 273.614 66.6984 272.967 69.0477C249.687 104.557 254.675 131.934 261.881 143.59C267.646 152.915 271.674 166.631 272.967 172.323C273.337 174.763 274.02 181.919 273.799 191.026C273.522 202.411 269.087 214.067 267.701 217.591Z" fill="#5E351C"/>
<path d="M283.776 217.591C279.12 216.94 278.695 212.621 279.065 210.543C281.282 206.567 285.328 194.821 283.776 179.642C282.224 164.462 273.891 148.198 269.919 141.964C267.24 128.953 263.877 99.7321 271.859 86.9379C281.836 70.9451 277.402 74.4689 280.173 69.0477C282.39 64.7106 287.01 65.6142 289.042 66.6081C314.54 74.6316 325.349 102.298 327.566 115.129C328.951 126.604 330.559 154.704 325.903 175.305C320.083 201.056 289.596 218.404 283.776 217.591Z" fill="#5E351C"/>
<path d="M156.842 207.019C190.321 198.779 207.56 215.512 211.994 224.909C213.213 227.078 212.502 227.801 211.994 227.891C207.098 228.975 195.31 232.228 187.328 236.565C157.95 255.54 164.602 257.979 154.07 279.122C143.539 300.265 125.524 309.481 122.475 309.752C120.036 309.969 119.427 311.108 119.427 311.65C117.653 313.818 115.916 313.638 115.269 313.276C110.927 308.578 101.855 295.169 100.303 279.122C98.3633 259.063 107.232 249.576 115.269 241.173C121.699 234.451 128.48 227.53 131.067 224.909C133.654 220.572 142.43 210.922 156.842 207.019Z" stroke="#523434" stroke-width="3"/>
<path d="M213.935 231.957C217.704 230.873 219.755 232.409 220.309 233.312C231.617 264.756 217.076 285.808 208.392 292.404C206.636 293.398 200.521 298.259 190.1 309.752C171.032 335.775 138.735 328.365 124.97 321.408C123.122 320.143 120.923 316.963 126.91 314.36C141.765 308.289 153.054 293.579 156.842 286.983C158.967 280.387 164.657 265.244 170.422 257.437C177.628 247.679 191.208 238.463 198.137 236.565C205.066 234.668 209.223 233.312 213.935 231.957Z" stroke="#523434" stroke-width="3"/>
<path d="M188.16 162.836C188.825 160.667 187.883 158.499 187.328 157.686C152.962 134.374 126.078 133.29 103.906 143.59C86.1687 151.831 63.073 145.397 53.7423 141.151C50.8784 139.073 45.0398 136.976 44.5964 145.217C44.0421 155.517 63.7197 185.876 81.7344 187.232C96.1461 188.316 103.26 190.213 105.015 191.026C111.112 192.382 126.688 194.93 140.213 194.279C153.738 193.629 165.249 187.322 169.314 184.25C180.954 177.202 187.328 165.546 188.16 162.836Z" stroke="#523434" stroke-width="3"/>
<path d="M45.1507 128.682C43.3769 127.381 44.0421 125.068 44.5964 124.074C55.128 78.806 96.7004 76.0953 103.352 77.4506C108.673 78.5349 135.871 81.3359 148.804 82.6009C154.994 83.9562 170.034 89.5401 180.677 101.033C193.98 115.4 194.811 140.337 193.703 146.03C192.816 150.584 188.899 150.276 187.051 149.554C152.685 122.447 118.872 128.682 110.835 134.103C102.798 139.524 86.1688 139.524 75.0828 138.982C63.9968 138.44 47.3678 130.308 45.1507 128.682Z" stroke="#523434" stroke-width="3"/>
<path d="M267.701 217.591C266.593 220.41 262.436 220.392 260.496 220.03C223.69 218.295 207.837 184.431 204.511 167.715C203.311 162.474 201.851 143.915 205.62 111.605C210.332 71.2162 255.507 62 265.207 62C272.967 62 273.614 66.6984 272.967 69.0477C249.687 104.557 254.675 131.934 261.881 143.59C267.646 152.915 271.674 166.631 272.967 172.323C273.337 174.763 274.02 181.919 273.799 191.026C273.522 202.411 269.087 214.067 267.701 217.591Z" stroke="#523434" stroke-width="3"/>
<path d="M283.776 217.591C279.12 216.94 278.695 212.621 279.065 210.543C281.282 206.567 285.328 194.821 283.776 179.642C282.224 164.462 273.891 148.198 269.919 141.964C267.24 128.953 263.877 99.7321 271.859 86.9379C281.836 70.9451 277.402 74.4689 280.173 69.0477C282.39 64.7106 287.01 65.6142 289.042 66.6081C314.54 74.6316 325.349 102.298 327.566 115.129C328.951 126.604 330.559 154.704 325.903 175.305C320.083 201.056 289.596 218.404 283.776 217.591Z" stroke="#523434" stroke-width="3"/>
<circle cx="186.5" cy="186.5" r="184" stroke="#5E351C" stroke-width="5"/>
</svg>
