<svg viewBox="0 0 30 30" xmlns="http://www.w3.org/2000/svg" xmlns:xlink="http://www.w3.org/1999/xlink" width="30.000000" height="30.000000" fill="none" customFrame="#000000">
	<rect id="Component 21" width="30.000000" height="30.000000" x="0.000000" y="0.000000" />
	<circle id="Ellipse 1" cx="15" cy="15" r="14.5" stroke="rgb(14.4529,14.4529,14.4529)" stroke-width="1" />
	<g id="Group 56">
		<path id="Vector 17" d="M17.6062 17.2642C15.7949 18.6227 13.8327 17.8302 13.0779 17.2642C12.4176 17.5472 10.8138 18.3396 9.68172 19.2453C8.54964 20.151 9.21002 20.7547 9.68172 20.9434L20.7195 20.9434C21.2855 20.8491 22.2478 20.434 21.5685 19.5283C20.6628 18.3962 18.5496 17.5472 17.6062 17.2642Z" fill="rgb(0,0,0)" fill-rule="evenodd" />
		<path id="Vector 17" d="M17.6062 17.2642C18.5496 17.5472 20.6628 18.3962 21.5685 19.5283C22.2478 20.434 21.2855 20.8491 20.7195 20.9434L9.68172 20.9434C9.21002 20.7547 8.54964 20.151 9.68172 19.2453C10.8138 18.3396 12.4176 17.5472 13.0779 17.2642C13.8327 17.8302 15.7949 18.6227 17.6062 17.2642Z" fill-rule="evenodd" stroke="rgb(0,0,0)" stroke-width="1" />
		<circle id="Ellipse 23" cx="15.3420277" cy="11.8867054" r="3.39622688" fill="rgb(0,0,0)" />
		<circle id="Ellipse 23" cx="15.3420277" cy="11.8867054" r="2.89622688" stroke="rgb(0,0,0)" stroke-width="1" />
	</g>
</svg>
