<svg viewBox="0 0 16.0006 16.4121" xmlns="http://www.w3.org/2000/svg" xmlns:xlink="http://www.w3.org/1999/xlink" width="16.000641" height="16.412109" fill="none" customFrame="#000000">
	<rect id="Group 65" width="15.000000" height="15.000000" x="0.500366" y="0.500488" />
	<path id="Vector 4" d="M4.51718 0.503455C6.52554 0.594346 7.65524 1.90469 7.96904 2.5485L7.96904 15.5005C3.15734 12.4329 1.06532 7.88837 0.646913 6.525C0.312187 5.43431 0.636444 4.09837 0.775913 3.56816C1.07477 2.43203 2.50883 0.412564 4.51718 0.503455Z" fill="rgb(255,0,0)" fill-rule="evenodd" />
	<path id="Vector 4" d="M4.51718 0.503455C2.50883 0.412564 1.07477 2.43203 0.775913 3.56816C0.636444 4.09837 0.312187 5.43431 0.646913 6.525C1.06532 7.88837 3.15734 12.4329 7.96904 15.5005L7.96904 2.5485C7.65524 1.90469 6.52554 0.594346 4.51718 0.503455Z" fill-rule="evenodd" stroke="rgb(255,0,0)" stroke-width="1" />
	<path id="Vector 5" d="M4.05509 0.00286007C6.06344 0.093751 7.19314 1.4041 7.50695 2.04791L7.50695 14.9999C2.69524 11.9323 0.603227 7.38777 0.18482 6.02441C-0.149906 4.93372 0.0453504 3.60063 0.18482 3.07043C0.638094 2.01003 2.04673 -0.0880309 4.05509 0.00286007Z" fill="rgb(255,0,0)" fill-rule="evenodd" transform="matrix(-1,0,0,1,15.5004,0.500488)" />
	<path id="Vector 5" d="M4.05509 0.00286007C2.04673 -0.0880309 0.638094 2.01003 0.18482 3.07043C0.0453504 3.60063 -0.149906 4.93372 0.18482 6.02441C0.603227 7.38777 2.69524 11.9323 7.50695 14.9999L7.50695 2.04791C7.19314 1.4041 6.06344 0.093751 4.05509 0.00286007Z" fill-rule="evenodd" stroke="rgb(255,0,0)" stroke-width="1" transform="matrix(-1,0,0,1,15.5004,0.500488)" />
</svg>
