<svg viewBox="0 0 16.0006 15.9219" xmlns="http://www.w3.org/2000/svg" xmlns:xlink="http://www.w3.org/1999/xlink" width="16.000610" height="15.921875" fill="none" customFrame="#000000">
	<defs>
		<clipPath id="clipPath_0">
			<rect width="15.000000" height="15.000000" x="0.500366" y="0.500488" fill="rgb(255,255,255)" />
		</clipPath>
	</defs>
	<g id="Group 67">
		<g id="Group 68" customFrame="url(#clipPath_0)">
			<rect id="Group 68" width="15.000000" height="15.000000" x="0.500366" y="0.500488" />
			<path id="Vector 4" d="M7.56284 2.87778C7.37475 2.4909 7.05066 2.12221 6.59057 1.77169C5.96417 1.29448 5.26207 1.03823 4.48429 1.00294C3.7268 0.968572 3.01621 1.27823 2.35251 1.93192C1.78521 2.49065 1.42065 3.07837 1.25884 3.69508C0.964788 4.81581 0.920055 5.71035 1.12464 6.3787C1.4424 7.41676 2.11561 8.6506 3.14426 10.0802C4.60588 12.1116 6.35317 13.7769 8.38613 15.0763L7.84758 15.9189C5.70706 14.5508 3.86872 12.7992 2.33255 10.6643C1.23973 9.14547 0.518356 7.81451 0.168438 6.6714C-0.0915902 5.82194 -0.0505423 4.74523 0.291582 3.44129C0.499892 2.64736 0.952964 1.90675 1.6508 1.21945C2.52183 0.361571 3.48143 -0.0435896 4.52961 0.00396881C5.51549 0.0487003 6.40448 0.372788 7.19657 0.976233C7.78286 1.42288 8.20473 1.91099 8.46219 2.44054L7.56284 2.87778Z" fill="rgb(255,0,0)" fill-rule="nonzero" />
			<path id="Vector 5" d="M7.03816 2.26654C6.85684 1.89359 6.54552 1.5451 6.10421 1.22107C5.50008 0.777491 4.80604 0.537915 4.0221 0.502346C3.28229 0.46878 2.56927 0.788611 1.88304 1.46184C1.34522 1.98946 0.932307 2.59103 0.644287 3.26655L0.184349 3.07045L0.667979 3.19734C0.580338 3.53137 0.5265 3.91891 0.506463 4.35996C0.479865 4.94544 0.531861 5.45149 0.66245 5.8781C0.996374 6.96897 1.64338 8.20557 2.60347 9.58792C4.0163 11.6222 5.73418 13.2857 7.7571 14.5787L7.21855 15.4213C5.08321 14.0565 3.27107 12.3022 1.78213 10.1584C0.762621 8.69046 0.0706607 7.36127 -0.293753 6.1708C-0.458085 5.63396 -0.524336 5.01522 -0.492506 4.31458C-0.469263 3.80294 -0.404855 3.34593 -0.299282 2.94356L-0.289974 2.90809L-0.27559 2.87435C0.0643353 2.07709 0.550442 1.36831 1.18273 0.748002C2.07613 -0.128471 3.0377 -0.543347 4.06742 -0.496626C5.05301 -0.451908 5.92922 -0.148027 6.69605 0.415017C7.27027 0.836634 7.68409 1.30806 7.9375 1.8293L7.03816 2.26654Z" fill="rgb(255,0,0)" fill-rule="nonzero" transform="matrix(-1,0,0,1,15.5004,0.500488)" />
		</g>
	</g>
</svg>
